<?xml version="1.0" encoding="UTF-8"?>
<!DOCTYPE svg PUBLIC "-//W3C//DTD SVG 1.1//EN" "http://www.w3.org/Graphics/SVG/1.1/DTD/svg11.dtd">
<svg xmlns="http://www.w3.org/2000/svg" version="1.1" width="176px" height="188px" style="shape-rendering:geometricPrecision; text-rendering:geometricPrecision; image-rendering:optimizeQuality; fill-rule:evenodd; clip-rule:evenodd" xmlns:xlink="http://www.w3.org/1999/xlink">
<g><path style="opacity:1" fill="#a08044" d="M 94.5,-0.5 C 95.8333,-0.5 97.1667,-0.5 98.5,-0.5C 99.1667,0.166667 99.8333,0.833333 100.5,1.5C 97.1625,1.06525 94.1625,1.73192 91.5,3.5C 91.5,2.83333 91.1667,2.5 90.5,2.5C 91.8333,1.5 93.1667,0.5 94.5,-0.5 Z"/></g>
<g><path style="opacity:1" fill="#8b6735" d="M 100.5,1.5 C 110.852,7.67344 120.852,14.3401 130.5,21.5C 129.833,21.5 129.167,21.5 128.5,21.5C 118.387,15.7903 109.053,9.12366 100.5,1.5 Z"/></g>
<g><path style="opacity:1" fill="#805628" d="M 90.5,2.5 C 91.1667,2.5 91.5,2.83333 91.5,3.5C 87.827,5.00025 84.4937,7.00025 81.5,9.5C 78.3777,10.5612 75.3777,11.8946 72.5,13.5C 71.8333,13.5 71.5,13.1667 71.5,12.5C 77.3515,8.4059 83.6848,5.07257 90.5,2.5 Z"/></g>
<g><path style="opacity:1" fill="#f8990c" d="M 105.5,26.5 C 105.5,27.1667 105.5,27.8333 105.5,28.5C 104.504,28.5858 103.671,28.2524 103,27.5C 101.985,24.4423 100.819,21.4423 99.5,18.5C 98.3112,17.5713 96.9778,17.238 95.5,17.5C 95.6567,18.8734 95.49,20.2068 95,21.5C 93.4383,17.9855 92.605,14.3189 92.5,10.5C 91.5,10.5 90.5,10.5 89.5,10.5C 88.2382,10.0934 86.9049,9.76004 85.5,9.5C 84.5504,13.9771 82.217,15.1438 78.5,13C 80.0629,12.2411 81.0629,11.0744 81.5,9.5C 85.9609,8.31044 90.2942,6.81044 94.5,5C 97.5314,4.50465 100.531,4.67131 103.5,5.5C 103.797,8.72391 103.13,11.7239 101.5,14.5C 102.989,18.5244 104.322,22.5244 105.5,26.5 Z"/></g>
<g><path style="opacity:1" fill="#ac7f41" d="M 71.5,12.5 C 71.5,13.1667 71.8333,13.5 72.5,13.5C 71.5,14.1667 70.5,14.8333 69.5,15.5C 63.6332,18.5961 57.9666,21.9294 52.5,25.5C 50.9382,25.7329 49.6049,26.3995 48.5,27.5C 48.1667,27.5 47.8333,27.5 47.5,27.5C 54.7909,21.513 62.7909,16.513 71.5,12.5 Z"/></g>
<g><path style="opacity:1" fill="#e99325" d="M 81.5,9.5 C 81.0629,11.0744 80.0629,12.2411 78.5,13C 82.217,15.1438 84.5504,13.9771 85.5,9.5C 86.9049,9.76004 88.2382,10.0934 89.5,10.5C 85.7881,13.2109 82.7881,16.5442 80.5,20.5C 79.2089,19.4583 79.2089,18.2917 80.5,17C 79.5632,16.3083 78.8966,16.475 78.5,17.5C 75.8839,18.4798 73.5506,19.9798 71.5,22C 70.1666,24.1906 68.5,26.024 66.5,27.5C 68.0531,24.2402 69.5531,20.9069 71,17.5C 72.813,18.6091 73.6463,17.9424 73.5,15.5C 72.1667,15.5 70.8333,15.5 69.5,15.5C 70.5,14.8333 71.5,14.1667 72.5,13.5C 75.3777,11.8946 78.3777,10.5612 81.5,9.5 Z"/></g>
<g><path style="opacity:1" fill="#e89523" d="M 100.5,1.5 C 109.053,9.12366 118.387,15.7903 128.5,21.5C 129.5,22.8333 130.5,24.1667 131.5,25.5C 132.5,25.8333 133.167,26.5 133.5,27.5C 133.5,28.5 133.5,29.5 133.5,30.5C 132.167,30.5 130.833,30.5 129.5,30.5C 127.142,30.7475 125.142,30.0808 123.5,28.5C 119.509,24.5428 115.509,20.5428 111.5,16.5C 110.055,14.9373 108.389,13.604 106.5,12.5C 105.521,15.6248 105.187,18.9581 105.5,22.5C 105.5,23.8333 105.5,25.1667 105.5,26.5C 104.322,22.5244 102.989,18.5244 101.5,14.5C 103.13,11.7239 103.797,8.72391 103.5,5.5C 100.531,4.67131 97.5314,4.50465 94.5,5C 90.2942,6.81044 85.9609,8.31044 81.5,9.5C 84.4937,7.00025 87.827,5.00025 91.5,3.5C 94.1625,1.73192 97.1625,1.06525 100.5,1.5 Z"/></g>
<g><path style="opacity:1" fill="#5a0f03" d="M 111.5,16.5 C 115.509,20.5428 119.509,24.5428 123.5,28.5C 123.103,29.525 122.437,29.6917 121.5,29C 116.843,25.2555 113.51,21.0889 111.5,16.5 Z"/></g>
<g><path style="opacity:1" fill="#61180a" d="M 89.5,10.5 C 91.4551,14.987 92.7885,19.6536 93.5,24.5C 92.0457,20.9391 90.0457,17.6057 87.5,14.5C 83.4678,17.8913 80.9678,22.2246 80,27.5C 78.6575,28.9023 77.8242,28.5689 77.5,26.5C 77.685,25.4163 78.0183,24.4163 78.5,23.5C 79.9063,23.0269 80.573,22.0269 80.5,20.5C 82.7881,16.5442 85.7881,13.2109 89.5,10.5 Z"/></g>
<g><path style="opacity:1" fill="#4b0b04" d="M 106.5,12.5 C 106.884,17.0102 107.551,21.3435 108.5,25.5C 109.119,29.3559 109.119,33.0225 108.5,36.5C 107.734,31.661 106.734,26.9943 105.5,22.5C 105.187,18.9581 105.521,15.6248 106.5,12.5 Z"/></g>
<g><path style="opacity:1" fill="#803125" d="M 80.5,20.5 C 80.573,22.0269 79.9063,23.0269 78.5,23.5C 77.7494,22.4265 76.7494,22.2599 75.5,23C 73.6487,24.6837 71.982,26.5171 70.5,28.5C 72.5,29.1667 74.5,29.8333 76.5,30.5C 78.6028,34.106 81.2694,37.2727 84.5,40C 86.4727,40.4955 88.4727,40.6621 90.5,40.5C 90.33,41.8221 90.6634,42.9887 91.5,44C 93.4727,44.4955 95.4727,44.6621 97.5,44.5C 96.8333,45.5 96.1667,46.5 95.5,47.5C 94.3991,48.5983 93.0657,48.765 91.5,48C 85.8333,43 80.1667,38 74.5,33C 72.8659,32.5065 71.1992,32.3398 69.5,32.5C 68.0813,31.5489 66.4147,31.2155 64.5,31.5C 64.9321,30.2905 65.5987,29.2905 66.5,28.5C 66.4346,28.9382 66.6012,29.2716 67,29.5C 71.0647,25.6046 74.898,21.6046 78.5,17.5C 78.8966,16.475 79.5632,16.3083 80.5,17C 79.2089,18.2917 79.2089,19.4583 80.5,20.5 Z"/></g>
<g><path style="opacity:1" fill="#e6942a" d="M 89.5,10.5 C 90.5,10.5 91.5,10.5 92.5,10.5C 92.605,14.3189 93.4383,17.9855 95,21.5C 95.49,20.2068 95.6567,18.8734 95.5,17.5C 96.9778,17.238 98.3112,17.5713 99.5,18.5C 100.819,21.4423 101.985,24.4423 103,27.5C 103.671,28.2524 104.504,28.5858 105.5,28.5C 105.843,30.4832 105.176,31.8166 103.5,32.5C 103.5,31.8333 103.167,31.5 102.5,31.5C 101.157,27.1364 99.657,22.8031 98,18.5C 97.86,22.234 98.36,25.9007 99.5,29.5C 99.5,30.8333 98.8333,31.5 97.5,31.5C 96.5,29.5 95.5,27.5 94.5,25.5C 94.5,24.8333 94.1667,24.5 93.5,24.5C 92.7885,19.6536 91.4551,14.987 89.5,10.5 Z"/></g>
<g><path style="opacity:1" fill="#f79912" d="M 69.5,15.5 C 70.8333,15.5 72.1667,15.5 73.5,15.5C 73.6463,17.9424 72.813,18.6091 71,17.5C 69.5531,20.9069 68.0531,24.2402 66.5,27.5C 66.5,27.8333 66.5,28.1667 66.5,28.5C 65.5987,29.2905 64.9321,30.2905 64.5,31.5C 61.3795,36.0773 59.0462,41.0773 57.5,46.5C 59.2251,54.5066 57.5584,61.8399 52.5,68.5C 51.5481,66.9547 51.2148,65.288 51.5,63.5C 52.1667,61.5 52.8333,59.5 53.5,57.5C 54.709,55.5654 54.5423,53.5654 53,51.5C 52.0853,52.3279 51.4186,53.3279 51,54.5C 50.9822,52.2028 51.1489,49.8695 51.5,47.5C 51.5,46.8333 51.5,46.1667 51.5,45.5C 52.5735,44.7494 52.7401,43.7494 52,42.5C 49.1731,43.9986 47.3397,43.1653 46.5,40C 47.4477,34.6379 49.4477,29.8045 52.5,25.5C 57.9666,21.9294 63.6332,18.5961 69.5,15.5 Z"/></g>
<g><path style="opacity:1" fill="#9d3526" d="M 106.5,12.5 C 108.389,13.604 110.055,14.9373 111.5,16.5C 113.51,21.0889 116.843,25.2555 121.5,29C 122.437,29.6917 123.103,29.525 123.5,28.5C 125.142,30.0808 127.142,30.7475 129.5,30.5C 129.5,30.8333 129.5,31.1667 129.5,31.5C 125.095,31.0305 121.095,32.0305 117.5,34.5C 115.007,34.3291 113.174,35.3291 112,37.5C 110.758,33.4073 109.591,29.4073 108.5,25.5C 107.551,21.3435 106.884,17.0102 106.5,12.5 Z"/></g>
<g><path style="opacity:1" fill="#f8990d" d="M 131.5,25.5 C 131.539,26.5832 131.873,27.5832 132.5,28.5C 130.579,29.641 128.579,29.8077 126.5,29C 125.663,27.9887 125.33,26.8221 125.5,25.5C 123.169,25.5023 121.169,24.669 119.5,23C 120.399,21.7638 121.566,20.9304 123,20.5C 125.955,22.0569 128.788,23.7236 131.5,25.5 Z"/></g>
<g><path style="opacity:1" fill="#511303" d="M 78.5,17.5 C 74.898,21.6046 71.0647,25.6046 67,29.5C 66.6012,29.2716 66.4346,28.9382 66.5,28.5C 66.5,28.1667 66.5,27.8333 66.5,27.5C 68.5,26.024 70.1666,24.1906 71.5,22C 73.5506,19.9798 75.8839,18.4798 78.5,17.5 Z"/></g>
<g><path style="opacity:1" fill="#6c2f07" d="M 102.5,31.5 C 101.662,31.8417 101.328,32.5084 101.5,33.5C 100.833,32.1667 100.167,30.8333 99.5,29.5C 98.36,25.9007 97.86,22.234 98,18.5C 99.657,22.8031 101.157,27.1364 102.5,31.5 Z"/></g>
<g><path style="opacity:1" fill="#c88134" d="M 105.5,22.5 C 106.734,26.9943 107.734,31.661 108.5,36.5C 107.5,36.5 106.5,36.5 105.5,36.5C 104.833,35.1667 104.167,33.8333 103.5,32.5C 105.176,31.8166 105.843,30.4832 105.5,28.5C 105.5,27.8333 105.5,27.1667 105.5,26.5C 105.5,25.1667 105.5,23.8333 105.5,22.5 Z"/></g>
<g><path style="opacity:1" fill="#a23326" d="M 93.5,24.5 C 94.1667,24.5 94.5,24.8333 94.5,25.5C 93.9033,25.7352 93.5699,26.2352 93.5,27C 95.0692,30.5378 96.7358,34.0378 98.5,37.5C 99.2763,39.974 100.776,40.6407 103,39.5C 103.5,40.5 104,41.5 104.5,42.5C 102.031,43.1681 99.6979,43.8347 97.5,44.5C 95.4727,44.6621 93.4727,44.4955 91.5,44C 90.6634,42.9887 90.33,41.8221 90.5,40.5C 88.4727,40.6621 86.4727,40.4955 84.5,40C 81.2694,37.2727 78.6028,34.106 76.5,30.5C 74.5,29.8333 72.5,29.1667 70.5,28.5C 71.982,26.5171 73.6487,24.6837 75.5,23C 76.7494,22.2599 77.7494,22.4265 78.5,23.5C 78.0183,24.4163 77.685,25.4163 77.5,26.5C 77.8242,28.5689 78.6575,28.9023 80,27.5C 80.9678,22.2246 83.4678,17.8913 87.5,14.5C 90.0457,17.6057 92.0457,20.9391 93.5,24.5 Z"/></g>
<g><path style="opacity:1" fill="#430d04" d="M 94.5,25.5 C 95.5,27.5 96.5,29.5 97.5,31.5C 99.0248,33.2163 100.025,35.2163 100.5,37.5C 100.062,38.5063 99.3957,38.5063 98.5,37.5C 96.7358,34.0378 95.0692,30.5378 93.5,27C 93.5699,26.2352 93.9033,25.7352 94.5,25.5 Z"/></g>
<g><path style="opacity:1" fill="#cb8d53" d="M 99.5,29.5 C 100.167,30.8333 100.833,32.1667 101.5,33.5C 101.328,34.4916 101.662,35.1583 102.5,35.5C 102.5,36.8333 101.833,37.5 100.5,37.5C 100.025,35.2163 99.0248,33.2163 97.5,31.5C 98.8333,31.5 99.5,30.8333 99.5,29.5 Z"/></g>
<g><path style="opacity:1" fill="#100907" d="M 129.5,31.5 C 132.091,32.2543 133.924,33.921 135,36.5C 135.498,39.8168 135.665,43.1501 135.5,46.5C 135.167,46.5 134.833,46.5 134.5,46.5C 133.923,42.9247 131.923,40.5914 128.5,39.5C 123.662,41.3369 119.328,44.0036 115.5,47.5C 122.361,48.5681 124.528,52.2348 122,58.5C 117.925,62.4101 113.925,62.4101 110,58.5C 109.506,56.8659 109.34,55.1992 109.5,53.5C 108.5,53.5 107.5,53.5 106.5,53.5C 108.254,51.4113 109.587,49.078 110.5,46.5C 105.537,47.254 100.537,47.5874 95.5,47.5C 96.1667,46.5 96.8333,45.5 97.5,44.5C 99.8695,44.8511 102.203,45.0178 104.5,45C 109.23,41.9713 113.563,38.4713 117.5,34.5C 121.095,32.0305 125.095,31.0305 129.5,31.5 Z"/></g>
<g><path style="opacity:1" fill="#251206" d="M 64.5,31.5 C 66.4147,31.2155 68.0813,31.5489 69.5,32.5C 68.5,32.5 67.5,32.5 66.5,32.5C 66.6427,34.2624 66.3094,35.9291 65.5,37.5C 66.2427,38.1818 66.9094,38.8485 67.5,39.5C 65.9731,39.427 64.9731,40.0937 64.5,41.5C 63.8485,40.9094 63.1818,40.2427 62.5,39.5C 61.438,41.0217 60.7713,42.6883 60.5,44.5C 59.7777,45.5511 58.7777,46.2178 57.5,46.5C 59.0462,41.0773 61.3795,36.0773 64.5,31.5 Z"/></g>
<g><path style="opacity:1" fill="#470e04" d="M 102.5,31.5 C 103.167,31.5 103.5,31.8333 103.5,32.5C 104.167,33.8333 104.833,35.1667 105.5,36.5C 106.562,37.5754 106.562,38.5754 105.5,39.5C 104.141,38.3757 103.141,37.0423 102.5,35.5C 101.662,35.1583 101.328,34.4916 101.5,33.5C 101.328,32.5084 101.662,31.8417 102.5,31.5 Z"/></g>
<g><path style="opacity:1" fill="#872f26" d="M 108.5,25.5 C 109.591,29.4073 110.758,33.4073 112,37.5C 113.174,35.3291 115.007,34.3291 117.5,34.5C 113.563,38.4713 109.23,41.9713 104.5,45C 102.203,45.0178 99.8695,44.8511 97.5,44.5C 99.6979,43.8347 102.031,43.1681 104.5,42.5C 104,41.5 103.5,40.5 103,39.5C 100.776,40.6407 99.2763,39.974 98.5,37.5C 99.3957,38.5063 100.062,38.5063 100.5,37.5C 101.833,37.5 102.5,36.8333 102.5,35.5C 103.141,37.0423 104.141,38.3757 105.5,39.5C 106.562,38.5754 106.562,37.5754 105.5,36.5C 106.5,36.5 107.5,36.5 108.5,36.5C 109.119,33.0225 109.119,29.3559 108.5,25.5 Z"/></g>
<g><path style="opacity:1" fill="#c4873b" d="M 133.5,27.5 C 135.435,31.8949 136.769,36.5615 137.5,41.5C 136.517,45.2984 136.183,49.2984 136.5,53.5C 136.5,53.8333 136.5,54.1667 136.5,54.5C 136.167,54.5 135.833,54.5 135.5,54.5C 135.5,51.8333 135.5,49.1667 135.5,46.5C 135.665,43.1501 135.498,39.8168 135,36.5C 133.924,33.921 132.091,32.2543 129.5,31.5C 129.5,31.1667 129.5,30.8333 129.5,30.5C 130.833,30.5 132.167,30.5 133.5,30.5C 133.5,29.5 133.5,28.5 133.5,27.5 Z"/></g>
<g><path style="opacity:1" fill="#0a0707" d="M 69.5,32.5 C 71.1992,32.3398 72.8659,32.5065 74.5,33C 80.1667,38 85.8333,43 91.5,48C 93.0657,48.765 94.3991,48.5983 95.5,47.5C 100.537,47.5874 105.537,47.254 110.5,46.5C 109.587,49.078 108.254,51.4113 106.5,53.5C 105.027,55.3947 103.36,57.0613 101.5,58.5C 100.833,58.5 100.167,58.5 99.5,58.5C 99.44,57.9569 99.1067,57.6236 98.5,57.5C 96.7869,57.8793 95.7869,58.8793 95.5,60.5C 94.8333,60.1667 94.1667,59.8333 93.5,59.5C 90.9484,57.0568 87.9484,55.3901 84.5,54.5C 84.0008,61.4272 80.3342,63.9272 73.5,62C 69.3013,56.977 69.968,52.8103 75.5,49.5C 76.8333,49.5 78.1667,49.5 79.5,49.5C 79.7148,47.8212 79.0481,46.8212 77.5,46.5C 74.4873,43.6644 71.154,41.3311 67.5,39.5C 66.9094,38.8485 66.2427,38.1818 65.5,37.5C 66.3094,35.9291 66.6427,34.2624 66.5,32.5C 67.5,32.5 68.5,32.5 69.5,32.5 Z"/></g>
<g><path style="opacity:1" fill="#8a7153" d="M 64.5,41.5 C 63.4955,42.6828 62.6622,44.0161 62,45.5C 61.5012,49.4862 61.3345,53.4862 61.5,57.5C 60.5206,54.3752 60.1872,51.0419 60.5,47.5C 60.5,46.5 60.5,45.5 60.5,44.5C 60.7713,42.6883 61.438,41.0217 62.5,39.5C 63.1818,40.2427 63.8485,40.9094 64.5,41.5 Z"/></g>
<g><path style="opacity:1" fill="#f4f3f1" d="M 134.5,46.5 C 135.191,53.2961 133.857,59.6294 130.5,65.5C 129.109,67.8903 127.109,69.5569 124.5,70.5C 123.209,70.2627 122.209,70.596 121.5,71.5C 116.266,72.8955 111.266,72.2289 106.5,69.5C 104.261,66.1255 102.594,62.4588 101.5,58.5C 103.36,57.0613 105.027,55.3947 106.5,53.5C 107.5,53.5 108.5,53.5 109.5,53.5C 109.34,55.1992 109.506,56.8659 110,58.5C 113.925,62.4101 117.925,62.4101 122,58.5C 124.528,52.2348 122.361,48.5681 115.5,47.5C 119.328,44.0036 123.662,41.3369 128.5,39.5C 131.923,40.5914 133.923,42.9247 134.5,46.5 Z"/></g>
<g><path style="opacity:1" fill="#dc902c" d="M 52.5,25.5 C 49.4477,29.8045 47.4477,34.6379 46.5,40C 47.3397,43.1653 49.1731,43.9986 52,42.5C 52.7401,43.7494 52.5735,44.7494 51.5,45.5C 49.8828,47.1209 48.7162,49.1209 48,51.5C 46.0379,56.0087 45.0379,60.6753 45,65.5C 47.1826,59.391 49.3493,53.391 51.5,47.5C 51.1489,49.8695 50.9822,52.2028 51,54.5C 51.4186,53.3279 52.0853,52.3279 53,51.5C 54.5423,53.5654 54.709,55.5654 53.5,57.5C 53.631,56.7611 53.4643,56.0944 53,55.5C 49.9903,62.3655 47.4903,69.3655 45.5,76.5C 44.2719,77.3065 43.2719,78.3065 42.5,79.5C 43.2209,76.1825 43.3876,72.8492 43,69.5C 40.652,75.1805 39.4853,80.8472 39.5,86.5C 39.6309,87.3764 39.2975,88.0431 38.5,88.5C 37.6764,85.2152 37.1764,81.8818 37,78.5C 35.2835,79.5523 34.2835,78.8856 34,76.5C 33.3292,77.2524 32.4959,77.5858 31.5,77.5C 37.7709,60.9761 43.4376,44.3094 48.5,27.5C 49.6049,26.3995 50.9382,25.7329 52.5,25.5 Z"/></g>
<g><path style="opacity:1" fill="#5f5f61" d="M 77.5,46.5 C 79.0481,46.8212 79.7148,47.8212 79.5,49.5C 78.1667,49.5 76.8333,49.5 75.5,49.5C 76.2625,48.7321 77.2625,48.2321 78.5,48C 77.944,47.6174 77.6107,47.1174 77.5,46.5 Z"/></g>
<g><path style="opacity:1" fill="#df932f" d="M 137.5,41.5 C 140.007,46.5369 142.007,51.8702 143.5,57.5C 142.167,57.5 140.833,57.5 139.5,57.5C 139.905,53.9521 139.405,50.6188 138,47.5C 137.809,49.7078 137.309,51.7078 136.5,53.5C 136.183,49.2984 136.517,45.2984 137.5,41.5 Z"/></g>
<g><path style="opacity:1" fill="#583917" d="M 134.5,46.5 C 134.833,46.5 135.167,46.5 135.5,46.5C 135.5,49.1667 135.5,51.8333 135.5,54.5C 134.965,58.309 133.965,61.9756 132.5,65.5C 132.167,65.5 131.833,65.5 131.5,65.5C 131.167,65.5 130.833,65.5 130.5,65.5C 133.857,59.6294 135.191,53.2961 134.5,46.5 Z"/></g>
<g><path style="opacity:1" fill="#7c3906" d="M 46.5,43.5 C 47.0967,43.7352 47.4301,44.2352 47.5,45C 44.0609,55.9846 40.2276,66.818 36,77.5C 35.3333,76.1667 35.3333,74.8333 36,73.5C 39.6855,63.5871 43.1855,53.5871 46.5,43.5 Z"/></g>
<g><path style="opacity:1" fill="#652703" d="M 51.5,45.5 C 51.5,46.1667 51.5,46.8333 51.5,47.5C 49.3493,53.391 47.1826,59.391 45,65.5C 45.0379,60.6753 46.0379,56.0087 48,51.5C 48.7162,49.1209 49.8828,47.1209 51.5,45.5 Z"/></g>
<g><path style="opacity:1" fill="#854102" d="M 53.5,57.5 C 52.8333,59.5 52.1667,61.5 51.5,63.5C 49.3836,68.9521 47.717,74.6188 46.5,80.5C 45.4789,80.1007 45.1455,78.7674 45.5,76.5C 47.4903,69.3655 49.9903,62.3655 53,55.5C 53.4643,56.0944 53.631,56.7611 53.5,57.5 Z"/></g>
<g><path style="opacity:1" fill="#f8f6f4" d="M 67.5,39.5 C 71.154,41.3311 74.4873,43.6644 77.5,46.5C 77.6107,47.1174 77.944,47.6174 78.5,48C 77.2625,48.2321 76.2625,48.7321 75.5,49.5C 69.968,52.8103 69.3013,56.977 73.5,62C 80.3342,63.9272 84.0008,61.4272 84.5,54.5C 87.9484,55.3901 90.9484,57.0568 93.5,59.5C 93.278,62.5042 92.278,65.1708 90.5,67.5C 88.6342,70.2701 85.9676,71.7701 82.5,72C 70.6888,74.0101 63.6888,69.1768 61.5,57.5C 61.3345,53.4862 61.5012,49.4862 62,45.5C 62.6622,44.0161 63.4955,42.6828 64.5,41.5C 64.9731,40.0937 65.9731,39.427 67.5,39.5 Z"/></g>
<g><path style="opacity:1" fill="#d4962f" d="M 99.5,58.5 C 100.167,60.1667 100.833,61.8333 101.5,63.5C 99.7973,62.3398 99.1307,63.0065 99.5,65.5C 98.596,64.791 98.2627,63.791 98.5,62.5C 97.5,62.5 96.5,62.5 95.5,62.5C 95.5,61.8333 95.5,61.1667 95.5,60.5C 95.7869,58.8793 96.7869,57.8793 98.5,57.5C 99.1067,57.6236 99.44,57.9569 99.5,58.5 Z"/></g>
<g><path style="opacity:1" fill="#f39a10" d="M 143.5,57.5 C 143.5,58.1667 143.5,58.8333 143.5,59.5C 144.036,62.6981 143.369,65.3647 141.5,67.5C 140.305,63.7139 139.638,63.7139 139.5,67.5C 139.768,69.099 139.434,70.4324 138.5,71.5C 137.333,67.6667 136.167,67.6667 135,71.5C 134.833,70.1667 134.667,68.8333 134.5,67.5C 135.886,63.2658 136.553,58.9325 136.5,54.5C 136.5,54.1667 136.5,53.8333 136.5,53.5C 137.309,51.7078 137.809,49.7078 138,47.5C 139.405,50.6188 139.905,53.9521 139.5,57.5C 140.833,57.5 142.167,57.5 143.5,57.5 Z"/></g>
<g><path style="opacity:1" fill="#6f5829" d="M 99.5,58.5 C 100.167,58.5 100.833,58.5 101.5,58.5C 102.594,62.4588 104.261,66.1255 106.5,69.5C 106.167,69.5 105.833,69.5 105.5,69.5C 103.684,67.8816 102.351,65.8816 101.5,63.5C 100.833,61.8333 100.167,60.1667 99.5,58.5 Z"/></g>
<g><path style="opacity:1" fill="#4e1f18" d="M 60.5,47.5 C 60.1872,51.0419 60.5206,54.3752 61.5,57.5C 63.6888,69.1768 70.6888,74.0101 82.5,72C 85.9676,71.7701 88.6342,70.2701 90.5,67.5C 91.404,68.209 91.7373,69.209 91.5,70.5C 90.8902,71.391 90.5569,72.391 90.5,73.5C 89.8333,73.5 89.1667,73.5 88.5,73.5C 81.5276,73.9714 74.6942,73.3048 68,71.5C 64.5701,68.7411 61.9034,65.4077 60,61.5C 58.1552,63.8668 56.9886,66.5335 56.5,69.5C 55.8571,71.0764 54.8571,72.4097 53.5,73.5C 54.8155,68.3943 56.6488,63.3943 59,58.5C 59.1773,54.6437 59.6773,50.977 60.5,47.5 Z"/></g>
<g><path style="opacity:1" fill="#503314" d="M 93.5,59.5 C 94.1667,59.8333 94.8333,60.1667 95.5,60.5C 95.5,61.1667 95.5,61.8333 95.5,62.5C 93.6185,64.9296 92.2852,67.5962 91.5,70.5C 91.7373,69.209 91.404,68.209 90.5,67.5C 92.278,65.1708 93.278,62.5042 93.5,59.5 Z"/></g>
<g><path style="opacity:1" fill="#34110b" d="M 130.5,65.5 C 130.833,65.5 131.167,65.5 131.5,65.5C 131.657,66.8734 131.49,68.2068 131,69.5C 130.667,69.1667 130.333,68.8333 130,68.5C 128.363,70.6057 126.53,71.2724 124.5,70.5C 127.109,69.5569 129.109,67.8903 130.5,65.5 Z"/></g>
<g><path style="opacity:1" fill="#dd9425" d="M 143.5,59.5 C 146.61,67.1755 148.944,75.1755 150.5,83.5C 147.538,75.5719 146.205,76.2386 146.5,85.5C 144.544,79.6868 142.877,73.6868 141.5,67.5C 143.369,65.3647 144.036,62.6981 143.5,59.5 Z"/></g>
<g><path style="opacity:1" fill="#6b4428" d="M 128.5,21.5 C 129.167,21.5 129.833,21.5 130.5,21.5C 133.624,23.7244 135.791,26.7244 137,30.5C 145.886,61.3829 155.386,92.0495 165.5,122.5C 165.167,122.5 164.833,122.5 164.5,122.5C 159.428,109.614 154.761,96.6143 150.5,83.5C 148.944,75.1755 146.61,67.1755 143.5,59.5C 143.5,58.8333 143.5,58.1667 143.5,57.5C 142.007,51.8702 140.007,46.5369 137.5,41.5C 136.769,36.5615 135.435,31.8949 133.5,27.5C 133.167,26.5 132.5,25.8333 131.5,25.5C 130.5,24.1667 129.5,22.8333 128.5,21.5 Z"/></g>
<g><path style="opacity:1" fill="#f4c862" d="M 101.5,63.5 C 102.351,65.8816 103.684,67.8816 105.5,69.5C 105.5,69.8333 105.5,70.1667 105.5,70.5C 106.933,72.5582 107.6,74.8915 107.5,77.5C 105.5,74.5 103.5,71.5 101.5,68.5C 101.573,66.9731 100.906,65.9731 99.5,65.5C 99.1307,63.0065 99.7973,62.3398 101.5,63.5 Z"/></g>
<g><path style="opacity:1" fill="#db922c" d="M 60.5,44.5 C 60.5,45.5 60.5,46.5 60.5,47.5C 59.6773,50.977 59.1773,54.6437 59,58.5C 56.6488,63.3943 54.8155,68.3943 53.5,73.5C 52.8333,73.5 52.5,73.8333 52.5,74.5C 51.525,77.0667 50.8583,79.7334 50.5,82.5C 49.5326,81.1938 48.1993,80.5271 46.5,80.5C 47.717,74.6188 49.3836,68.9521 51.5,63.5C 51.2148,65.288 51.5481,66.9547 52.5,68.5C 57.5584,61.8399 59.2251,54.5066 57.5,46.5C 58.7777,46.2178 59.7777,45.5511 60.5,44.5 Z"/></g>
<g><path style="opacity:1" fill="#a43125" d="M 64.5,86.5 C 63.1667,87.1667 62.1667,88.1667 61.5,89.5C 59.5539,94.3958 58.8872,99.7291 59.5,105.5C 58.5,105.5 57.5,105.5 56.5,105.5C 56.5498,100.448 56.0498,95.4482 55,90.5C 54.6174,89.944 54.1174,89.6107 53.5,89.5C 52.5663,84.3336 52.233,79.3336 52.5,74.5C 52.5,73.8333 52.8333,73.5 53.5,73.5C 54.8571,72.4097 55.8571,71.0764 56.5,69.5C 57.7899,68.9423 58.6232,67.9423 59,66.5C 61.6912,67.7142 63.8579,69.5476 65.5,72C 71.942,74.2654 78.6086,75.0987 85.5,74.5C 85.5,80.1667 85.5,85.8333 85.5,91.5C 82.4816,91.6646 79.4816,91.498 76.5,91C 75.8033,88.841 76.1366,86.6743 77.5,84.5C 73.5411,83.3401 69.5411,83.1735 65.5,84C 64.7476,84.6708 64.4142,85.5041 64.5,86.5 Z"/></g>
<g><path style="opacity:1" fill="#e28f22" d="M 135.5,54.5 C 135.833,54.5 136.167,54.5 136.5,54.5C 136.553,58.9325 135.886,63.2658 134.5,67.5C 134.667,68.8333 134.833,70.1667 135,71.5C 136.167,67.6667 137.333,67.6667 138.5,71.5C 137.876,71.9169 137.543,72.5836 137.5,73.5C 138.173,75.851 138.84,78.1843 139.5,80.5C 138.417,80.5394 137.417,80.8728 136.5,81.5C 135.808,80.9747 135.308,80.3081 135,79.5C 134.667,84.1667 134.333,88.8333 134,93.5C 133.623,94.9423 132.79,95.9423 131.5,96.5C 133.822,89.2891 134.155,81.9558 132.5,74.5C 132.5,71.5 132.5,68.5 132.5,65.5C 133.965,61.9756 134.965,58.309 135.5,54.5 Z"/></g>
<g><path style="opacity:1" fill="#6a2905" d="M 42.5,79.5 C 40.9348,81.5093 39.9348,83.8427 39.5,86.5C 39.4853,80.8472 40.652,75.1805 43,69.5C 43.3876,72.8492 43.2209,76.1825 42.5,79.5 Z"/></g>
<g><path style="opacity:1" fill="#a53223" d="M 129.5,95.5 C 128.87,99.0477 127.87,102.381 126.5,105.5C 125.221,104.032 123.554,103.365 121.5,103.5C 121.396,100.91 122.063,98.5771 123.5,96.5C 120.34,91.8202 118.34,86.6535 117.5,81C 116.932,77.7366 118.266,76.2366 121.5,76.5C 121.5,75.5 121.5,74.5 121.5,73.5C 124.167,73.1667 126.833,72.8333 129.5,72.5C 130.833,80.1667 130.833,87.8333 129.5,95.5 Z"/></g>
<g><path style="opacity:1" fill="#e9a934" d="M 101.5,68.5 C 103.5,71.5 105.5,74.5 107.5,77.5C 110.097,80.3557 111.93,83.6891 113,87.5C 113.671,88.2524 114.504,88.5858 115.5,88.5C 120.12,95.3987 118.453,97.0654 110.5,93.5C 111.209,92.596 112.209,92.2627 113.5,92.5C 113.254,89.5299 111.588,88.1966 108.5,88.5C 109.128,83.9615 107.628,80.2949 104,77.5C 103.151,74.4786 102.317,71.4786 101.5,68.5 Z"/></g>
<g><path style="opacity:1" fill="#560f04" d="M 52.5,74.5 C 52.233,79.3336 52.5663,84.3336 53.5,89.5C 54.1634,93.4903 54.8301,97.4903 55.5,101.5C 55.4892,103.045 55.1558,104.378 54.5,105.5C 54.4828,103.435 54.1495,101.435 53.5,99.5C 52.9131,93.9633 51.9131,88.63 50.5,83.5C 50.5,83.1667 50.5,82.8333 50.5,82.5C 50.8583,79.7334 51.525,77.0667 52.5,74.5 Z"/></g>
<g><path style="opacity:1" fill="#f99c0d" d="M 95.5,62.5 C 96.5,62.5 97.5,62.5 98.5,62.5C 98.2627,63.791 98.596,64.791 99.5,65.5C 100.906,65.9731 101.573,66.9731 101.5,68.5C 102.317,71.4786 103.151,74.4786 104,77.5C 107.628,80.2949 109.128,83.9615 108.5,88.5C 111.588,88.1966 113.254,89.5299 113.5,92.5C 112.209,92.2627 111.209,92.596 110.5,93.5C 109.167,93.5 107.833,93.5 106.5,93.5C 106.158,92.6618 105.492,92.3284 104.5,92.5C 102.5,91.8333 100.5,91.1667 98.5,90.5C 97.2318,88.953 95.5652,87.953 93.5,87.5C 92.4361,85.181 91.7694,82.681 91.5,80C 93.0262,74.2013 94.3595,68.3679 95.5,62.5 Z"/></g>
<g><path style="opacity:1" fill="#c5944a" d="M 105.5,70.5 C 109.844,75.8471 113.177,81.8471 115.5,88.5C 114.504,88.5858 113.671,88.2524 113,87.5C 111.93,83.6891 110.097,80.3557 107.5,77.5C 107.6,74.8915 106.933,72.5582 105.5,70.5 Z"/></g>
<g><path style="opacity:1" fill="#48130b" d="M 105.5,70.5 C 105.5,70.1667 105.5,69.8333 105.5,69.5C 105.833,69.5 106.167,69.5 106.5,69.5C 111.266,72.2289 116.266,72.8955 121.5,71.5C 122.239,71.369 122.906,71.5357 123.5,72C 122.584,72.2784 121.918,72.7784 121.5,73.5C 118.167,73.5 114.833,73.5 111.5,73.5C 111.343,74.8734 111.51,76.2068 112,77.5C 115.508,83.1765 118.341,89.1765 120.5,95.5C 120.209,96.6491 119.376,97.3158 118,97.5C 113.647,96.9634 109.48,95.7968 105.5,94C 105.728,93.6012 106.062,93.4346 106.5,93.5C 107.833,93.5 109.167,93.5 110.5,93.5C 118.453,97.0654 120.12,95.3987 115.5,88.5C 113.177,81.8471 109.844,75.8471 105.5,70.5 Z"/></g>
<g><path style="opacity:1" fill="#94460a" d="M 138.5,71.5 C 140.036,76.1082 141.369,80.7749 142.5,85.5C 142.19,86.7383 141.69,86.7383 141,85.5C 140.648,83.7525 140.148,82.0858 139.5,80.5C 138.84,78.1843 138.173,75.851 137.5,73.5C 137.543,72.5836 137.876,71.9169 138.5,71.5 Z"/></g>
<g><path style="opacity:1" fill="#5d0f06" d="M 88.5,73.5 C 89.1667,73.5 89.8333,73.5 90.5,73.5C 89.962,75.1172 89.6287,76.7839 89.5,78.5C 88.087,81.2186 87.4203,84.2186 87.5,87.5C 91.2232,88.2967 94.8899,89.2967 98.5,90.5C 100.5,91.1667 102.5,91.8333 104.5,92.5C 103.551,93.1524 102.385,93.4857 101,93.5C 96.6841,91.4579 92.1841,89.7913 87.5,88.5C 87.1667,87.3333 86.8333,86.1667 86.5,85C 87.2499,81.1703 87.9166,77.337 88.5,73.5 Z"/></g>
<g><path style="opacity:1" fill="#c3772a" d="M 89.5,78.5 C 89.5,81.1667 89.5,83.8333 89.5,86.5C 90.9587,86.4326 92.2921,86.7659 93.5,87.5C 95.5652,87.953 97.2318,88.953 98.5,90.5C 94.8899,89.2967 91.2232,88.2967 87.5,87.5C 87.4203,84.2186 88.087,81.2186 89.5,78.5 Z"/></g>
<g><path style="opacity:1" fill="#e69e26" d="M 95.5,62.5 C 94.3595,68.3679 93.0262,74.2013 91.5,80C 91.7694,82.681 92.4361,85.181 93.5,87.5C 92.2921,86.7659 90.9587,86.4326 89.5,86.5C 89.5,83.8333 89.5,81.1667 89.5,78.5C 89.6287,76.7839 89.962,75.1172 90.5,73.5C 90.5569,72.391 90.8902,71.391 91.5,70.5C 92.2852,67.5962 93.6185,64.9296 95.5,62.5 Z"/></g>
<g><path style="opacity:1" fill="#d38b3d" d="M 139.5,67.5 C 141.053,73.7666 142.72,80.0999 144.5,86.5C 143.833,86.1667 143.167,85.8333 142.5,85.5C 141.369,80.7749 140.036,76.1082 138.5,71.5C 139.434,70.4324 139.768,69.099 139.5,67.5 Z"/></g>
<g><path style="opacity:1" fill="#6b2b05" d="M 141.5,67.5 C 142.877,73.6868 144.544,79.6868 146.5,85.5C 146.66,90.079 145.993,90.4123 144.5,86.5C 142.72,80.0999 141.053,73.7666 139.5,67.5C 139.638,63.7139 140.305,63.7139 141.5,67.5 Z"/></g>
<g><path style="opacity:1" fill="#f9990d" d="M 39.5,86.5 C 39.9348,83.8427 40.9348,81.5093 42.5,79.5C 43.2719,78.3065 44.2719,77.3065 45.5,76.5C 45.1455,78.7674 45.4789,80.1007 46.5,80.5C 48.1993,80.5271 49.5326,81.1938 50.5,82.5C 50.5,82.8333 50.5,83.1667 50.5,83.5C 50.2274,89.2161 51.2274,94.5494 53.5,99.5C 54.1495,101.435 54.4828,103.435 54.5,105.5C 55.1495,107.435 55.4828,109.435 55.5,111.5C 55.5,112.167 55.5,112.833 55.5,113.5C 54.8333,114.5 54.1667,115.5 53.5,116.5C 51.0594,118.075 49.8928,120.408 50,123.5C 48.9288,120.887 48.0955,120.887 47.5,123.5C 46.8333,123.5 46.5,123.833 46.5,124.5C 44.1474,121.609 43.8141,118.276 45.5,114.5C 41.745,114.079 39.4116,112.079 38.5,108.5C 35.5275,112.921 33.0275,117.588 31,122.5C 30.5034,120.19 30.3367,117.857 30.5,115.5C 30.5,115.167 30.5,114.833 30.5,114.5C 31.4511,113.081 31.7845,111.415 31.5,109.5C 29.4159,110.248 27.4159,110.248 25.5,109.5C 24.3514,112.429 22.6847,112.929 20.5,111C 21.3802,109.644 21.7135,108.144 21.5,106.5C 24.5745,96.6972 27.9079,87.0306 31.5,77.5C 32.4959,77.5858 33.3292,77.2524 34,76.5C 34.2835,78.8856 35.2835,79.5523 37,78.5C 37.1764,81.8818 37.6764,85.2152 38.5,88.5C 39.2975,88.0431 39.6309,87.3764 39.5,86.5 Z"/></g>
<g><path style="opacity:1" fill="#c37622" d="M 50.5,83.5 C 51.9131,88.63 52.9131,93.9633 53.5,99.5C 51.2274,94.5494 50.2274,89.2161 50.5,83.5 Z"/></g>
<g><path style="opacity:1" fill="#94342b" d="M 88.5,73.5 C 87.9166,77.337 87.2499,81.1703 86.5,85C 86.8333,86.1667 87.1667,87.3333 87.5,88.5C 92.1841,89.7913 96.6841,91.4579 101,93.5C 102.385,93.4857 103.551,93.1524 104.5,92.5C 105.492,92.3284 106.158,92.6618 106.5,93.5C 106.062,93.4346 105.728,93.6012 105.5,94C 109.48,95.7968 113.647,96.9634 118,97.5C 119.376,97.3158 120.209,96.6491 120.5,95.5C 122.885,96.8673 122.552,98.2007 119.5,99.5C 118.571,100.689 118.238,102.022 118.5,103.5C 117.768,102.192 116.934,100.858 116,99.5C 116.497,103.321 116.331,106.987 115.5,110.5C 114.696,108.811 113.696,107.145 112.5,105.5C 111.817,105.863 111.15,106.196 110.5,106.5C 110.167,104.5 109.833,102.5 109.5,100.5C 103.491,100.666 97.4908,100.499 91.5,100C 86.9097,98.183 82.2431,96.683 77.5,95.5C 73.5285,91.2411 70.5285,91.9078 68.5,97.5C 68.8333,94.8333 69.1667,92.1667 69.5,89.5C 67.6096,89.2965 66.1096,89.9632 65,91.5C 64.5005,97.8246 64.3338,104.158 64.5,110.5C 63.0695,110.579 61.7362,110.246 60.5,109.5C 59.5481,111.045 59.2148,112.712 59.5,114.5C 58.7677,113.192 57.9344,111.858 57,110.5C 56.6174,111.056 56.1174,111.389 55.5,111.5C 55.4828,109.435 55.1495,107.435 54.5,105.5C 55.1558,104.378 55.4892,103.045 55.5,101.5C 54.8301,97.4903 54.1634,93.4903 53.5,89.5C 54.1174,89.6107 54.6174,89.944 55,90.5C 56.0498,95.4482 56.5498,100.448 56.5,105.5C 57.5,105.5 58.5,105.5 59.5,105.5C 58.8872,99.7291 59.5539,94.3958 61.5,89.5C 60.0498,95.8683 60.2165,102.202 62,108.5C 62.088,102.39 62.7547,96.3902 64,90.5C 67.4217,87.9676 71.2551,86.3009 75.5,85.5C 71.7231,84.4059 68.0564,84.7392 64.5,86.5C 64.4142,85.5041 64.7476,84.6708 65.5,84C 69.5411,83.1735 73.5411,83.3401 77.5,84.5C 76.1366,86.6743 75.8033,88.841 76.5,91C 79.4816,91.498 82.4816,91.6646 85.5,91.5C 85.5,85.8333 85.5,80.1667 85.5,74.5C 78.6086,75.0987 71.942,74.2654 65.5,72C 63.8579,69.5476 61.6912,67.7142 59,66.5C 58.6232,67.9423 57.7899,68.9423 56.5,69.5C 56.9886,66.5335 58.1552,63.8668 60,61.5C 61.9034,65.4077 64.5701,68.7411 68,71.5C 74.6942,73.3048 81.5276,73.9714 88.5,73.5 Z"/></g>
<g><path style="opacity:1" fill="#853324" d="M 131.5,65.5 C 131.833,65.5 132.167,65.5 132.5,65.5C 132.5,68.5 132.5,71.5 132.5,74.5C 132.104,79.6547 131.937,84.988 132,90.5C 131.626,92.4913 130.793,94.158 129.5,95.5C 130.833,87.8333 130.833,80.1667 129.5,72.5C 126.833,72.8333 124.167,73.1667 121.5,73.5C 121.918,72.7784 122.584,72.2784 123.5,72C 122.906,71.5357 122.239,71.369 121.5,71.5C 122.209,70.596 123.209,70.2627 124.5,70.5C 126.53,71.2724 128.363,70.6057 130,68.5C 130.333,68.8333 130.667,69.1667 131,69.5C 131.49,68.2068 131.657,66.8734 131.5,65.5 Z"/></g>
<g><path style="opacity:1" fill="#4f0d04" d="M 132.5,74.5 C 134.155,81.9558 133.822,89.2891 131.5,96.5C 131.5,96.8333 131.5,97.1667 131.5,97.5C 129.799,101.972 128.465,106.639 127.5,111.5C 126.833,111.5 126.167,111.5 125.5,111.5C 126.15,109.565 126.483,107.565 126.5,105.5C 127.87,102.381 128.87,99.0477 129.5,95.5C 130.793,94.158 131.626,92.4913 132,90.5C 131.937,84.988 132.104,79.6547 132.5,74.5 Z"/></g>
<g><path style="opacity:1" fill="#f29917" d="M 150.5,83.5 C 150.325,85.6208 150.659,87.6208 151.5,89.5C 150.883,89.6107 150.383,89.944 150,90.5C 149.814,92.9005 149.314,95.2338 148.5,97.5C 145.618,95.6326 144.285,92.966 144.5,89.5C 141.112,89.8122 138.612,88.4789 137,85.5C 136.13,86.1079 135.63,86.9412 135.5,88C 137.742,90.4353 138.076,93.1019 136.5,96C 138.152,100.778 140.318,101.278 143,97.5C 143.667,98.8333 144.333,98.8333 145,97.5C 145.617,98.4491 145.451,99.2825 144.5,100C 145.025,100.692 145.692,101.192 146.5,101.5C 147.823,106.463 148.823,111.463 149.5,116.5C 148.833,115.5 148.167,114.5 147.5,113.5C 148.389,120.475 150.056,127.141 152.5,133.5C 152.5,133.833 152.5,134.167 152.5,134.5C 153.401,137.872 153.401,141.205 152.5,144.5C 151.859,143.007 150.859,142.007 149.5,141.5C 148.193,138.275 147.193,134.941 146.5,131.5C 143.386,123.05 140.886,114.383 139,105.5C 139.645,115.251 141.812,124.585 145.5,133.5C 145.5,134.167 145.5,134.833 145.5,135.5C 145.674,137.861 146.007,140.194 146.5,142.5C 145.167,142.5 143.833,142.5 142.5,142.5C 142.443,141.391 142.11,140.391 141.5,139.5C 139.124,130.641 136.457,121.974 133.5,113.5C 132.686,115.631 132.186,117.964 132,120.5C 129.067,112.926 128.9,105.26 131.5,97.5C 131.5,97.1667 131.5,96.8333 131.5,96.5C 132.79,95.9423 133.623,94.9423 134,93.5C 134.333,88.8333 134.667,84.1667 135,79.5C 135.308,80.3081 135.808,80.9747 136.5,81.5C 137.417,80.8728 138.417,80.5394 139.5,80.5C 140.148,82.0858 140.648,83.7525 141,85.5C 141.69,86.7383 142.19,86.7383 142.5,85.5C 143.167,85.8333 143.833,86.1667 144.5,86.5C 145.993,90.4123 146.66,90.079 146.5,85.5C 146.205,76.2386 147.538,75.5719 150.5,83.5 Z"/></g>
<g><path style="opacity:1" fill="#522722" d="M 77.5,95.5 C 82.2431,96.683 86.9097,98.183 91.5,100C 97.4908,100.499 103.491,100.666 109.5,100.5C 109.833,102.5 110.167,104.5 110.5,106.5C 109.003,110.764 106.003,113.431 101.5,114.5C 103.355,112.967 105.188,111.3 107,109.5C 108.202,107.323 108.702,104.989 108.5,102.5C 106.167,102.5 103.833,102.5 101.5,102.5C 100.833,102.5 100.167,102.5 99.5,102.5C 96.7628,102.599 94.0961,102.265 91.5,101.5C 90.8333,101.5 90.1667,101.5 89.5,101.5C 87.2084,99.7329 84.5418,98.7329 81.5,98.5C 80.8333,98.1667 80.1667,97.8333 79.5,97.5C 78.5,97.1667 77.8333,96.5 77.5,95.5 Z"/></g>
<g><path style="opacity:1" fill="#a83021" d="M 88.5,93.5 C 91.5078,93.7009 94.5078,94.0343 97.5,94.5C 102.225,96.6851 107.225,98.1851 112.5,99C 105.488,99.2724 98.4885,98.9391 91.5,98C 88.259,97.505 87.259,96.005 88.5,93.5 Z"/></g>
<g><path style="opacity:1" fill="#f4f1f0" d="M 81.5,98.5 C 84.5418,98.7329 87.2084,99.7329 89.5,101.5C 89.0401,105.811 87.7068,109.811 85.5,113.5C 85.0831,114.124 84.4164,114.457 83.5,114.5C 81.149,113.827 78.8157,113.16 76.5,112.5C 76.5,112.167 76.5,111.833 76.5,111.5C 77.3303,106.84 78.9969,102.507 81.5,98.5 Z"/></g>
<g><path style="opacity:1" fill="#400403" d="M 61.5,89.5 C 62.1667,88.1667 63.1667,87.1667 64.5,86.5C 68.0564,84.7392 71.7231,84.4059 75.5,85.5C 71.2551,86.3009 67.4217,87.9676 64,90.5C 62.7547,96.3902 62.088,102.39 62,108.5C 60.2165,102.202 60.0498,95.8683 61.5,89.5 Z"/></g>
<g><path style="opacity:1" fill="#f8f6f4" d="M 77.5,95.5 C 77.8333,96.5 78.5,97.1667 79.5,97.5C 78.1147,101.938 76.448,106.271 74.5,110.5C 73.5,109.833 72.5,109.167 71.5,108.5C 70.4604,104.22 70.2938,99.8868 71,95.5C 71.6891,94.6433 72.5224,93.9767 73.5,93.5C 74.6223,94.6302 75.9557,95.2969 77.5,95.5 Z"/></g>
<g><path style="opacity:1" fill="#f69811" d="M 151.5,89.5 C 153.136,96.2446 155.303,102.911 158,109.5C 158.667,111.833 158.667,114.167 158,116.5C 157.617,115.944 157.117,115.611 156.5,115.5C 155.678,113.611 154.845,111.611 154,109.5C 153.833,110.167 153.667,110.833 153.5,111.5C 154.586,114.42 155.252,117.42 155.5,120.5C 155.5,122.167 155.5,123.833 155.5,125.5C 154.5,125.5 153.5,125.5 152.5,125.5C 152.554,122.008 151.554,119.008 149.5,116.5C 148.823,111.463 147.823,106.463 146.5,101.5C 145.692,101.192 145.025,100.692 144.5,100C 145.451,99.2825 145.617,98.4491 145,97.5C 144.333,98.8333 143.667,98.8333 143,97.5C 140.318,101.278 138.152,100.778 136.5,96C 138.076,93.1019 137.742,90.4353 135.5,88C 135.63,86.9412 136.13,86.1079 137,85.5C 138.612,88.4789 141.112,89.8122 144.5,89.5C 144.285,92.966 145.618,95.6326 148.5,97.5C 149.314,95.2338 149.814,92.9005 150,90.5C 150.383,89.944 150.883,89.6107 151.5,89.5 Z"/></g>
<g><path style="opacity:1" fill="#65615f" d="M 79.5,97.5 C 80.1667,97.8333 80.8333,98.1667 81.5,98.5C 78.9969,102.507 77.3303,106.84 76.5,111.5C 75.8333,111.167 75.1667,110.833 74.5,110.5C 76.448,106.271 78.1147,101.938 79.5,97.5 Z"/></g>
<g><path style="opacity:1" fill="#f1eeec" d="M 101.5,102.5 C 103.833,102.5 106.167,102.5 108.5,102.5C 108.702,104.989 108.202,107.323 107,109.5C 105.188,111.3 103.355,112.967 101.5,114.5C 100.5,114.5 99.5,114.5 98.5,114.5C 99.0966,110.381 100.097,106.381 101.5,102.5 Z"/></g>
<g><path style="opacity:1" fill="#9d322c" d="M 68.5,97.5 C 68.5,100.167 68.5,102.833 68.5,105.5C 68.3433,106.873 68.51,108.207 69,109.5C 72.4046,110.903 75.2379,113.069 77.5,116C 80.146,116.497 82.8127,116.664 85.5,116.5C 89.8461,116.666 94.1794,116.499 98.5,116C 99.7375,115.768 100.737,115.268 101.5,114.5C 106.003,113.431 109.003,110.764 110.5,106.5C 111.15,106.196 111.817,105.863 112.5,105.5C 113.696,107.145 114.696,108.811 115.5,110.5C 115.5,111.5 115.5,112.5 115.5,113.5C 114.069,112.097 112.902,110.431 112,108.5C 111.5,114.825 111.334,121.158 111.5,127.5C 110.167,127.5 108.833,127.5 107.5,127.5C 107.574,123.734 106.074,120.734 103,118.5C 99.9393,120.37 96.7726,121.037 93.5,120.5C 96.3056,121.168 98.9723,121.834 101.5,122.5C 97.9231,123.579 94.2564,124.246 90.5,124.5C 84.288,123.89 78.288,122.724 72.5,121C 74.9562,122.711 77.6229,124.044 80.5,125C 87.5495,125.76 94.5495,125.593 101.5,124.5C 102.55,124.905 102.55,125.571 101.5,126.5C 98.8697,127.381 96.203,128.048 93.5,128.5C 87.5907,127.545 81.5907,127.211 75.5,127.5C 75.5,126.5 75.5,125.5 75.5,124.5C 73.5,124.167 71.5,123.833 69.5,123.5C 69.8723,120.383 69.8723,117.383 69.5,114.5C 66.5054,113.867 63.672,112.867 61,111.5C 61.1618,115.501 61.6618,119.501 62.5,123.5C 65.7264,123.552 68.0597,125.052 69.5,128C 68.4092,130.818 68.4092,133.651 69.5,136.5C 68.7281,135.306 67.7281,134.306 66.5,133.5C 62.4907,127.805 60.1574,121.471 59.5,114.5C 59.2148,112.712 59.5481,111.045 60.5,109.5C 61.7362,110.246 63.0695,110.579 64.5,110.5C 64.3338,104.158 64.5005,97.8246 65,91.5C 66.1096,89.9632 67.6096,89.2965 69.5,89.5C 69.1667,92.1667 68.8333,94.8333 68.5,97.5 Z"/></g>
<g><path style="opacity:1" fill="#4c2624" d="M 77.5,95.5 C 75.9557,95.2969 74.6223,94.6302 73.5,93.5C 72.5224,93.9767 71.6891,94.6433 71,95.5C 70.2938,99.8868 70.4604,104.22 71.5,108.5C 70.1001,107.9 69.1001,106.9 68.5,105.5C 68.5,102.833 68.5,100.167 68.5,97.5C 70.5285,91.9078 73.5285,91.2411 77.5,95.5 Z"/></g>
<g><path style="opacity:1" fill="#f5f5f1" d="M 91.5,101.5 C 94.0961,102.265 96.7628,102.599 99.5,102.5C 99.1056,106.347 98.1056,110.014 96.5,113.5C 93.7131,114.477 90.7131,114.81 87.5,114.5C 88.6792,110.116 90.0125,105.783 91.5,101.5 Z"/></g>
<g><path style="opacity:1" fill="#4e4f4b" d="M 99.5,102.5 C 100.167,102.5 100.833,102.5 101.5,102.5C 100.097,106.381 99.0966,110.381 98.5,114.5C 97.8333,114.167 97.1667,113.833 96.5,113.5C 98.1056,110.014 99.1056,106.347 99.5,102.5 Z"/></g>
<g><path style="opacity:1" fill="#4b0202" d="M 118.5,103.5 C 118.975,107.416 117.975,110.749 115.5,113.5C 115.5,112.5 115.5,111.5 115.5,110.5C 116.331,106.987 116.497,103.321 116,99.5C 116.934,100.858 117.768,102.192 118.5,103.5 Z"/></g>
<g><path style="opacity:1" fill="#9b332a" d="M 121.5,73.5 C 121.5,74.5 121.5,75.5 121.5,76.5C 118.266,76.2366 116.932,77.7366 117.5,81C 118.34,86.6535 120.34,91.8202 123.5,96.5C 122.063,98.5771 121.396,100.91 121.5,103.5C 123.554,103.365 125.221,104.032 126.5,105.5C 126.483,107.565 126.15,109.565 125.5,111.5C 124.778,111.918 124.278,112.584 124,113.5C 123.644,121.587 122.644,129.587 121,137.5C 117.2,138.966 113.367,139.966 109.5,140.5C 96.8289,140.667 84.1623,140.5 71.5,140C 70.6195,139.292 69.9528,138.458 69.5,137.5C 80.4767,138.351 91.4767,138.684 102.5,138.5C 108.069,137.202 113.735,136.202 119.5,135.5C 119.023,134.522 118.357,133.689 117.5,133C 118.416,132.626 119.25,132.126 120,131.5C 120.538,126.829 121.038,122.162 121.5,117.5C 118.144,118.138 116.144,116.804 115.5,113.5C 117.975,110.749 118.975,107.416 118.5,103.5C 118.238,102.022 118.571,100.689 119.5,99.5C 122.552,98.2007 122.885,96.8673 120.5,95.5C 118.341,89.1765 115.508,83.1765 112,77.5C 111.51,76.2068 111.343,74.8734 111.5,73.5C 114.833,73.5 118.167,73.5 121.5,73.5 Z"/></g>
<g><path style="opacity:1" fill="#4b4a47" d="M 89.5,101.5 C 90.1667,101.5 90.8333,101.5 91.5,101.5C 90.0125,105.783 88.6792,110.116 87.5,114.5C 86.8333,114.167 86.1667,113.833 85.5,113.5C 87.7068,109.811 89.0401,105.811 89.5,101.5 Z"/></g>
<g><path style="opacity:1" fill="#7d3701" d="M 147.5,113.5 C 145.912,111.473 145.412,109.139 146,106.5C 146.977,108.74 147.477,111.073 147.5,113.5 Z"/></g>
<g><path style="opacity:1" fill="#782e29" d="M 68.5,105.5 C 69.1001,106.9 70.1001,107.9 71.5,108.5C 72.5,109.167 73.5,109.833 74.5,110.5C 75.1667,110.833 75.8333,111.167 76.5,111.5C 76.5,111.833 76.5,112.167 76.5,112.5C 77.0577,113.79 78.0577,114.623 79.5,115C 81.7078,115.191 83.7078,115.691 85.5,116.5C 82.8127,116.664 80.146,116.497 77.5,116C 75.2379,113.069 72.4046,110.903 69,109.5C 68.51,108.207 68.3433,106.873 68.5,105.5 Z"/></g>
<g><path style="opacity:1" fill="#eb961d" d="M 46.5,124.5 C 44.9594,131.001 42.9594,137.335 40.5,143.5C 39.1667,143.5 37.8333,143.5 36.5,143.5C 36.8333,140.833 37.1667,138.167 37.5,135.5C 39.4399,131.013 40.7733,126.346 41.5,121.5C 38.5317,128.712 35.5317,136.045 32.5,143.5C 32.1667,144.167 31.8333,144.833 31.5,145.5C 30.5084,145.328 29.8417,145.662 29.5,146.5C 28.5,146.5 27.5,146.5 26.5,146.5C 29.0149,138.123 31.8482,129.79 35,121.5C 35.6667,120.167 35.6667,118.833 35,117.5C 31.4835,127.192 27.9835,136.859 24.5,146.5C 23.0813,147.451 21.4147,147.784 19.5,147.5C 19.5758,144.027 20.2424,140.694 21.5,137.5C 24.8909,130.328 27.8909,122.994 30.5,115.5C 30.3367,117.857 30.5034,120.19 31,122.5C 33.0275,117.588 35.5275,112.921 38.5,108.5C 39.4116,112.079 41.745,114.079 45.5,114.5C 43.8141,118.276 44.1474,121.609 46.5,124.5 Z"/></g>
<g><path style="opacity:1" fill="#4c1e1a" d="M 76.5,112.5 C 78.8157,113.16 81.149,113.827 83.5,114.5C 84.4164,114.457 85.0831,114.124 85.5,113.5C 86.1667,113.833 86.8333,114.167 87.5,114.5C 90.7131,114.81 93.7131,114.477 96.5,113.5C 97.1667,113.833 97.8333,114.167 98.5,114.5C 99.5,114.5 100.5,114.5 101.5,114.5C 100.737,115.268 99.7375,115.768 98.5,116C 94.1794,116.499 89.8461,116.666 85.5,116.5C 83.7078,115.691 81.7078,115.191 79.5,115C 78.0577,114.623 77.0577,113.79 76.5,112.5 Z"/></g>
<g><path style="opacity:1" fill="#834100" d="M 41.5,121.5 C 41.523,119.073 42.023,116.74 43,114.5C 43.5881,117.139 43.0881,119.473 41.5,121.5 Z"/></g>
<g><path style="opacity:1" fill="#3e0807" d="M 125.5,111.5 C 126.167,111.5 126.833,111.5 127.5,111.5C 127.5,111.833 127.5,112.167 127.5,112.5C 126.89,113.391 126.557,114.391 126.5,115.5C 125.356,119.964 124.69,124.63 124.5,129.5C 123.679,132.641 123.179,135.975 123,139.5C 120.174,141.34 117.007,142.006 113.5,141.5C 111.901,141.768 110.568,141.434 109.5,140.5C 113.367,139.966 117.2,138.966 121,137.5C 122.644,129.587 123.644,121.587 124,113.5C 124.278,112.584 124.778,111.918 125.5,111.5 Z"/></g>
<g><path style="opacity:1" fill="#a63224" d="M 115.5,113.5 C 116.144,116.804 118.144,118.138 121.5,117.5C 121.038,122.162 120.538,126.829 120,131.5C 119.25,132.126 118.416,132.626 117.5,133C 118.357,133.689 119.023,134.522 119.5,135.5C 113.735,136.202 108.069,137.202 102.5,138.5C 99.7719,137.795 96.9386,137.128 94,136.5C 93.5026,133.854 93.3359,131.187 93.5,128.5C 96.203,128.048 98.8697,127.381 101.5,126.5C 102.55,125.571 102.55,124.905 101.5,124.5C 101.5,123.833 101.5,123.167 101.5,122.5C 98.9723,121.834 96.3056,121.168 93.5,120.5C 96.7726,121.037 99.9393,120.37 103,118.5C 106.074,120.734 107.574,123.734 107.5,127.5C 108.833,127.5 110.167,127.5 111.5,127.5C 111.334,121.158 111.5,114.825 112,108.5C 112.902,110.431 114.069,112.097 115.5,113.5 Z"/></g>
<g><path style="opacity:1" fill="#e59525" d="M 53.5,116.5 C 53.1313,120.894 52.4646,125.227 51.5,129.5C 50.596,130.209 50.2627,131.209 50.5,132.5C 49.9401,136.193 49.2735,139.86 48.5,143.5C 46.5,143.5 44.5,143.5 42.5,143.5C 44.9913,137.029 46.6579,130.362 47.5,123.5C 48.0955,120.887 48.9288,120.887 50,123.5C 49.8928,120.408 51.0594,118.075 53.5,116.5 Z"/></g>
<g><path style="opacity:1" fill="#5b0905" d="M 101.5,122.5 C 101.5,123.167 101.5,123.833 101.5,124.5C 94.5495,125.593 87.5495,125.76 80.5,125C 77.6229,124.044 74.9562,122.711 72.5,121C 78.288,122.724 84.288,123.89 90.5,124.5C 94.2564,124.246 97.9231,123.579 101.5,122.5 Z"/></g>
<g><path style="opacity:1" fill="#7b572e" d="M 164.5,122.5 C 164.833,122.5 165.167,122.5 165.5,122.5C 167.538,126.94 169.204,131.607 170.5,136.5C 170.167,136.5 169.833,136.5 169.5,136.5C 166.668,132.342 165.001,127.676 164.5,122.5 Z"/></g>
<g><path style="opacity:1" fill="#823601" d="M 30.5,114.5 C 30.5,114.833 30.5,115.167 30.5,115.5C 27.8909,122.994 24.8909,130.328 21.5,137.5C 21.1667,137.5 20.8333,137.5 20.5,137.5C 23.6444,129.202 26.811,120.869 30,112.5C 30.4643,113.094 30.631,113.761 30.5,114.5 Z"/></g>
<g><path style="opacity:1" fill="#541708" d="M 127.5,112.5 C 130.479,122.662 133.146,132.995 135.5,143.5C 133.797,142.34 133.131,143.007 133.5,145.5C 133.167,145.5 132.833,145.5 132.5,145.5C 131.422,135.207 129.422,125.207 126.5,115.5C 126.557,114.391 126.89,113.391 127.5,112.5 Z"/></g>
<g><path style="opacity:1" fill="#803a02" d="M 147.5,113.5 C 148.167,114.5 148.833,115.5 149.5,116.5C 150.427,121.613 151.76,126.613 153.5,131.5C 152.662,131.842 152.328,132.508 152.5,133.5C 150.056,127.141 148.389,120.475 147.5,113.5 Z"/></g>
<g><path style="opacity:1" fill="#803903" d="M 133.5,113.5 C 136.457,121.974 139.124,130.641 141.5,139.5C 140.662,139.842 140.328,140.508 140.5,141.5C 137.386,132.466 135.052,123.133 133.5,113.5 Z"/></g>
<g><path style="opacity:1" fill="#52130a" d="M 55.5,113.5 C 55.8308,115.322 56.4975,116.989 57.5,118.5C 56.8826,118.389 56.3826,118.056 56,117.5C 54.8792,122.219 53.5459,126.886 52,131.5C 51.5357,130.906 51.369,130.239 51.5,129.5C 52.4646,125.227 53.1313,120.894 53.5,116.5C 54.1667,115.5 54.8333,114.5 55.5,113.5 Z"/></g>
<g><path style="opacity:1" fill="#864403" d="M 146.5,131.5 C 145.662,131.842 145.328,132.508 145.5,133.5C 141.812,124.585 139.645,115.251 139,105.5C 140.886,114.383 143.386,123.05 146.5,131.5 Z"/></g>
<g><path style="opacity:1" fill="#e99723" d="M 149.5,116.5 C 151.554,119.008 152.554,122.008 152.5,125.5C 153.5,125.5 154.5,125.5 155.5,125.5C 155.5,123.833 155.5,122.167 155.5,120.5C 159.253,129.148 162.253,138.148 164.5,147.5C 163.5,147.5 162.5,147.5 161.5,147.5C 159.62,147.771 158.287,147.104 157.5,145.5C 156.479,140.751 155.146,136.084 153.5,131.5C 151.76,126.613 150.427,121.613 149.5,116.5 Z"/></g>
<g><path style="opacity:1" fill="#74330a" d="M 156.5,115.5 C 159.532,125.642 162.866,135.642 166.5,145.5C 165.596,146.209 165.263,147.209 165.5,148.5C 164.209,148.263 163.209,148.596 162.5,149.5C 160.901,149.768 159.568,149.434 158.5,148.5C 159.791,148.737 160.791,148.404 161.5,147.5C 162.5,147.5 163.5,147.5 164.5,147.5C 162.253,138.148 159.253,129.148 155.5,120.5C 155.252,117.42 154.586,114.42 153.5,111.5C 153.667,110.833 153.833,110.167 154,109.5C 154.845,111.611 155.678,113.611 156.5,115.5 Z"/></g>
<g><path style="opacity:1" fill="#e39626" d="M 150.5,83.5 C 154.761,96.6143 159.428,109.614 164.5,122.5C 165.001,127.676 166.668,132.342 169.5,136.5C 170.244,141.39 171.577,146.057 173.5,150.5C 169.521,151.019 167.187,149.352 166.5,145.5C 162.866,135.642 159.532,125.642 156.5,115.5C 157.117,115.611 157.617,115.944 158,116.5C 158.667,114.167 158.667,111.833 158,109.5C 155.303,102.911 153.136,96.2446 151.5,89.5C 150.659,87.6208 150.325,85.6208 150.5,83.5 Z"/></g>
<g><path style="opacity:1" fill="#8d4502" d="M 26.5,146.5 C 25.8333,146.5 25.1667,146.5 24.5,146.5C 27.9835,136.859 31.4835,127.192 35,117.5C 35.6667,118.833 35.6667,120.167 35,121.5C 31.8482,129.79 29.0149,138.123 26.5,146.5 Z"/></g>
<g><path style="opacity:1" fill="#a63226" d="M 93.5,128.5 C 93.3359,131.187 93.5026,133.854 94,136.5C 96.9386,137.128 99.7719,137.795 102.5,138.5C 91.4767,138.684 80.4767,138.351 69.5,137.5C 69.5,137.167 69.5,136.833 69.5,136.5C 68.4092,133.651 68.4092,130.818 69.5,128C 68.0597,125.052 65.7264,123.552 62.5,123.5C 61.6618,119.501 61.1618,115.501 61,111.5C 63.672,112.867 66.5054,113.867 69.5,114.5C 69.8723,117.383 69.8723,120.383 69.5,123.5C 71.5,123.833 73.5,124.167 75.5,124.5C 75.5,125.5 75.5,126.5 75.5,127.5C 81.5907,127.211 87.5907,127.545 93.5,128.5 Z"/></g>
<g><path style="opacity:1" fill="#8b3b01" d="M 47.5,123.5 C 46.6579,130.362 44.9913,137.029 42.5,143.5C 41.8333,143.5 41.1667,143.5 40.5,143.5C 42.9594,137.335 44.9594,131.001 46.5,124.5C 46.5,123.833 46.8333,123.5 47.5,123.5 Z"/></g>
<g><path style="opacity:1" fill="#e69624" d="M 21.5,106.5 C 21.7135,108.144 21.3802,109.644 20.5,111C 22.6847,112.929 24.3514,112.429 25.5,109.5C 27.4159,110.248 29.4159,110.248 31.5,109.5C 31.7845,111.415 31.4511,113.081 30.5,114.5C 30.631,113.761 30.4643,113.094 30,112.5C 26.811,120.869 23.6444,129.202 20.5,137.5C 19.3546,140.942 18.0213,144.275 16.5,147.5C 16.0269,148.906 15.0269,149.573 13.5,149.5C 12.5,149.5 11.5,149.5 10.5,149.5C 11.0991,146.037 12.0991,142.704 13.5,139.5C 18.3964,131.377 21.8964,122.711 24,113.5C 19.8945,122.045 16.0611,130.711 12.5,139.5C 10.5969,142.979 8.93021,146.646 7.5,150.5C 5.58279,152.851 3.91613,152.851 2.5,150.5C 8.536,135.665 14.8693,120.998 21.5,106.5 Z"/></g>
<g><path style="opacity:1" fill="#823c01" d="M 13.5,139.5 C 13.1667,139.5 12.8333,139.5 12.5,139.5C 16.0611,130.711 19.8945,122.045 24,113.5C 21.8964,122.711 18.3964,131.377 13.5,139.5 Z"/></g>
<g><path style="opacity:1" fill="#5b2104" d="M 153.5,131.5 C 155.146,136.084 156.479,140.751 157.5,145.5C 156.833,145.833 156.167,146.167 155.5,146.5C 155.245,142.2 154.245,138.2 152.5,134.5C 152.5,134.167 152.5,133.833 152.5,133.5C 152.328,132.508 152.662,131.842 153.5,131.5 Z"/></g>
<g><path style="opacity:1" fill="#744f29" d="M 47.5,27.5 C 47.8333,27.5 48.1667,27.5 48.5,27.5C 43.4376,44.3094 37.7709,60.9761 31.5,77.5C 27.9079,87.0306 24.5745,96.6972 21.5,106.5C 14.8693,120.998 8.536,135.665 2.5,150.5C 2.5,149.833 2.16667,149.5 1.5,149.5C 18.2337,109.291 33.567,68.6243 47.5,27.5 Z"/></g>
<g><path style="opacity:1" fill="#350606" d="M 59.5,114.5 C 60.1574,121.471 62.4907,127.805 66.5,133.5C 66.4142,134.496 66.7476,135.329 67.5,136C 66.9056,136.464 66.2389,136.631 65.5,136.5C 65.3404,134.847 64.6737,133.514 63.5,132.5C 62.0937,132.027 61.427,131.027 61.5,129.5C 60.5625,125.687 59.2291,122.021 57.5,118.5C 56.4975,116.989 55.8308,115.322 55.5,113.5C 55.5,112.833 55.5,112.167 55.5,111.5C 56.1174,111.389 56.6174,111.056 57,110.5C 57.9344,111.858 58.7677,113.192 59.5,114.5 Z"/></g>
<g><path style="opacity:1" fill="#95342a" d="M 57.5,118.5 C 59.2291,122.021 60.5625,125.687 61.5,129.5C 59.8514,128.286 58.1848,126.953 56.5,125.5C 55.6329,129.465 55.6329,133.465 56.5,137.5C 55.5,137.5 54.5,137.5 53.5,137.5C 53.5,140.5 53.5,143.5 53.5,146.5C 52.5041,146.586 51.6708,146.252 51,145.5C 51.3128,140.999 51.1462,136.666 50.5,132.5C 50.2627,131.209 50.596,130.209 51.5,129.5C 51.369,130.239 51.5357,130.906 52,131.5C 53.5459,126.886 54.8792,122.219 56,117.5C 56.3826,118.056 56.8826,118.389 57.5,118.5 Z"/></g>
<g><path style="opacity:1" fill="#551702" d="M 146.5,131.5 C 147.193,134.941 148.193,138.275 149.5,141.5C 149.5,142.167 149.5,142.833 149.5,143.5C 149.167,143.5 148.833,143.5 148.5,143.5C 147.795,140.646 146.795,137.979 145.5,135.5C 145.5,134.833 145.5,134.167 145.5,133.5C 145.328,132.508 145.662,131.842 146.5,131.5 Z"/></g>
<g><path style="opacity:1" fill="#6e2902" d="M 41.5,121.5 C 40.7733,126.346 39.4399,131.013 37.5,135.5C 36.1993,138.101 34.866,140.768 33.5,143.5C 33.1667,143.5 32.8333,143.5 32.5,143.5C 35.5317,136.045 38.5317,128.712 41.5,121.5 Z"/></g>
<g><path style="opacity:1" fill="#e6972b" d="M 131.5,97.5 C 128.9,105.26 129.067,112.926 132,120.5C 132.186,117.964 132.686,115.631 133.5,113.5C 135.052,123.133 137.386,132.466 140.5,141.5C 139.448,143.256 137.781,143.923 135.5,143.5C 133.146,132.995 130.479,122.662 127.5,112.5C 127.5,112.167 127.5,111.833 127.5,111.5C 128.465,106.639 129.799,101.972 131.5,97.5 Z"/></g>
<g><path style="opacity:1" fill="#4e3422" d="M 169.5,136.5 C 169.833,136.5 170.167,136.5 170.5,136.5C 171.973,140.251 173.64,143.917 175.5,147.5C 175.5,149.167 175.5,150.833 175.5,152.5C 170.923,152.075 166.59,151.075 162.5,149.5C 163.209,148.596 164.209,148.263 165.5,148.5C 165.263,147.209 165.596,146.209 166.5,145.5C 167.187,149.352 169.521,151.019 173.5,150.5C 171.577,146.057 170.244,141.39 169.5,136.5 Z"/></g>
<g><path style="opacity:1" fill="#ca8c2f" d="M 37.5,135.5 C 37.1667,138.167 36.8333,140.833 36.5,143.5C 37.8333,143.5 39.1667,143.5 40.5,143.5C 39.3646,145.213 37.698,145.88 35.5,145.5C 34.1667,145.5 33.5,144.833 33.5,143.5C 34.866,140.768 36.1993,138.101 37.5,135.5 Z"/></g>
<g><path style="opacity:1" fill="#bb8232" d="M 145.5,135.5 C 146.795,137.979 147.795,140.646 148.5,143.5C 147.726,144.147 146.726,144.48 145.5,144.5C 143.97,144.36 142.97,143.693 142.5,142.5C 143.833,142.5 145.167,142.5 146.5,142.5C 146.007,140.194 145.674,137.861 145.5,135.5 Z"/></g>
<g><path style="opacity:1" fill="#8f3430" d="M 126.5,115.5 C 129.422,125.207 131.422,135.207 132.5,145.5C 125.466,153.535 117.799,160.868 109.5,167.5C 109.859,165.629 110.859,164.129 112.5,163C 112.167,162.667 111.833,162.333 111.5,162C 112.793,161.51 114.127,161.343 115.5,161.5C 115.5,158.167 117.167,156.5 120.5,156.5C 119.637,152.838 120.97,150.672 124.5,150C 124.167,149.667 123.833,149.333 123.5,149C 124.667,147.833 125.833,146.667 127,145.5C 128.395,146.815 129.395,146.481 130,144.5C 130.412,137.902 129.412,131.569 127,125.5C 126.8,127.32 125.966,128.653 124.5,129.5C 124.69,124.63 125.356,119.964 126.5,115.5 Z"/></g>
<g><path style="opacity:1" fill="#8f332d" d="M 124.5,129.5 C 126.51,141.349 121.51,146.349 109.5,144.5C 96.6401,144.786 83.8068,144.453 71,143.5C 66.0332,141.58 63.5332,137.913 63.5,132.5C 64.6737,133.514 65.3404,134.847 65.5,136.5C 66.4602,138.461 67.7935,140.127 69.5,141.5C 84.3279,142.826 98.9946,142.826 113.5,141.5C 117.007,142.006 120.174,141.34 123,139.5C 123.179,135.975 123.679,132.641 124.5,129.5 Z"/></g>
<g><path style="opacity:1" fill="#470202" d="M 66.5,133.5 C 67.7281,134.306 68.7281,135.306 69.5,136.5C 69.5,136.833 69.5,137.167 69.5,137.5C 69.9528,138.458 70.6195,139.292 71.5,140C 84.1623,140.5 96.8289,140.667 109.5,140.5C 110.568,141.434 111.901,141.768 113.5,141.5C 98.9946,142.826 84.3279,142.826 69.5,141.5C 67.7935,140.127 66.4602,138.461 65.5,136.5C 66.2389,136.631 66.9056,136.464 67.5,136C 66.7476,135.329 66.4142,134.496 66.5,133.5 Z"/></g>
<g><path style="opacity:1" fill="#705234" d="M 40.5,143.5 C 41.1667,143.5 41.8333,143.5 42.5,143.5C 44.5,143.5 46.5,143.5 48.5,143.5C 48.5271,145.199 49.1938,146.533 50.5,147.5C 49.5041,147.414 48.6708,147.748 48,148.5C 47.5172,147.552 47.3505,146.552 47.5,145.5C 43.5191,146.021 39.5191,146.354 35.5,146.5C 35.5,146.167 35.5,145.833 35.5,145.5C 37.698,145.88 39.3646,145.213 40.5,143.5 Z"/></g>
<g><path style="opacity:1" fill="#3e2419" d="M 141.5,139.5 C 142.11,140.391 142.443,141.391 142.5,142.5C 142.97,143.693 143.97,144.36 145.5,144.5C 146.726,144.48 147.726,144.147 148.5,143.5C 148.833,143.5 149.167,143.5 149.5,143.5C 151.033,145.245 153.033,146.245 155.5,146.5C 156.167,146.167 156.833,145.833 157.5,145.5C 158.287,147.104 159.62,147.771 161.5,147.5C 160.791,148.404 159.791,148.737 158.5,148.5C 151.215,147.173 143.882,146.173 136.5,145.5C 135.833,146.167 135.167,146.833 134.5,147.5C 134.167,146.833 133.833,146.167 133.5,145.5C 133.131,143.007 133.797,142.34 135.5,143.5C 137.781,143.923 139.448,143.256 140.5,141.5C 140.328,140.508 140.662,139.842 141.5,139.5 Z"/></g>
<g><path style="opacity:1" fill="#cb873c" d="M 152.5,134.5 C 154.245,138.2 155.245,142.2 155.5,146.5C 153.033,146.245 151.033,145.245 149.5,143.5C 149.5,142.833 149.5,142.167 149.5,141.5C 150.859,142.007 151.859,143.007 152.5,144.5C 153.401,141.205 153.401,137.872 152.5,134.5 Z"/></g>
<g><path style="opacity:1" fill="#2b0e00" d="M 32.5,143.5 C 32.8333,143.5 33.1667,143.5 33.5,143.5C 33.5,144.833 34.1667,145.5 35.5,145.5C 35.5,145.833 35.5,146.167 35.5,146.5C 33.901,146.768 32.5676,146.434 31.5,145.5C 31.8333,144.833 32.1667,144.167 32.5,143.5 Z"/></g>
<g><path style="opacity:1" fill="#81634b" d="M 31.5,145.5 C 32.5676,146.434 33.901,146.768 35.5,146.5C 32.7273,147.657 29.7273,148.324 26.5,148.5C 27.5,147.833 28.5,147.167 29.5,146.5C 29.8417,145.662 30.5084,145.328 31.5,145.5 Z"/></g>
<g><path style="opacity:1" fill="#5b3016" d="M 20.5,137.5 C 20.8333,137.5 21.1667,137.5 21.5,137.5C 20.2424,140.694 19.5758,144.027 19.5,147.5C 21.4147,147.784 23.0813,147.451 24.5,146.5C 25.1667,146.5 25.8333,146.5 26.5,146.5C 27.5,146.5 28.5,146.5 29.5,146.5C 28.5,147.167 27.5,147.833 26.5,148.5C 24.1944,148.993 21.861,149.326 19.5,149.5C 19.0269,148.094 18.0269,147.427 16.5,147.5C 18.0213,144.275 19.3546,140.942 20.5,137.5 Z"/></g>
<g><path style="opacity:1" fill="#a43227" d="M 61.5,129.5 C 61.427,131.027 62.0937,132.027 63.5,132.5C 63.5332,137.913 66.0332,141.58 71,143.5C 83.8068,144.453 96.6401,144.786 109.5,144.5C 109.5,144.833 109.5,145.167 109.5,145.5C 98.8018,145.263 88.1351,145.596 77.5,146.5C 77.7711,148.821 77.1045,150.821 75.5,152.5C 77.2861,155.404 77.6194,158.404 76.5,161.5C 74.5804,157.807 73.2471,157.807 72.5,161.5C 71.5,161.5 70.5,161.5 69.5,161.5C 63.5578,157.227 58.2244,152.227 53.5,146.5C 53.5,143.5 53.5,140.5 53.5,137.5C 54.5,137.5 55.5,137.5 56.5,137.5C 55.6329,133.465 55.6329,129.465 56.5,125.5C 58.1848,126.953 59.8514,128.286 61.5,129.5 Z"/></g>
<g><path style="opacity:1" fill="#686862" d="M 136.5,145.5 C 136.762,146.978 136.429,148.311 135.5,149.5C 134.702,149.043 134.369,148.376 134.5,147.5C 135.167,146.833 135.833,146.167 136.5,145.5 Z"/></g>
<g><path style="opacity:1" fill="#55260e" d="M 12.5,139.5 C 12.8333,139.5 13.1667,139.5 13.5,139.5C 12.0991,142.704 11.0991,146.037 10.5,149.5C 11.5,149.5 12.5,149.5 13.5,149.5C 11.5061,150.15 9.50613,150.483 7.5,150.5C 8.93021,146.646 10.5969,142.979 12.5,139.5 Z"/></g>
<g><path style="opacity:1" fill="#48332a" d="M 16.5,147.5 C 18.0269,147.427 19.0269,148.094 19.5,149.5C 13.0239,151.79 6.35725,153.79 -0.5,155.5C -0.5,154.5 -0.5,153.5 -0.5,152.5C 0.40128,151.71 1.06795,150.71 1.5,149.5C 2.16667,149.5 2.5,149.833 2.5,150.5C 3.91613,152.851 5.58279,152.851 7.5,150.5C 9.50613,150.483 11.5061,150.15 13.5,149.5C 15.0269,149.573 16.0269,148.906 16.5,147.5 Z"/></g>
<g><path style="opacity:1" fill="#a53126" d="M 109.5,167.5 C 107.565,171.103 104.565,173.103 100.5,173.5C 96.9909,173.808 95.3243,175.808 95.5,179.5C 93.6203,179.771 92.287,179.104 91.5,177.5C 93.2936,169.659 93.9603,161.659 93.5,153.5C 96.1441,153.16 98.4775,153.827 100.5,155.5C 103.109,154.77 105.776,154.27 108.5,154C 105.301,151.723 101.635,150.89 97.5,151.5C 97.5,150.167 97.5,148.833 97.5,147.5C 101.182,147.665 104.848,147.499 108.5,147C 109.056,146.617 109.389,146.117 109.5,145.5C 109.5,145.167 109.5,144.833 109.5,144.5C 121.51,146.349 126.51,141.349 124.5,129.5C 125.966,128.653 126.8,127.32 127,125.5C 129.412,131.569 130.412,137.902 130,144.5C 129.395,146.481 128.395,146.815 127,145.5C 125.833,146.667 124.667,147.833 123.5,149C 123.833,149.333 124.167,149.667 124.5,150C 120.97,150.672 119.637,152.838 120.5,156.5C 117.167,156.5 115.5,158.167 115.5,161.5C 114.127,161.343 112.793,161.51 111.5,162C 111.833,162.333 112.167,162.667 112.5,163C 110.859,164.129 109.859,165.629 109.5,167.5 Z"/></g>
<g><path style="opacity:1" fill="#4f2d28" d="M 50.5,132.5 C 51.1462,136.666 51.3128,140.999 51,145.5C 51.6708,146.252 52.5041,146.586 53.5,146.5C 58.2244,152.227 63.5578,157.227 69.5,161.5C 76.6137,169.41 83.947,177.076 91.5,184.5C 95.7303,181.626 98.7303,177.959 100.5,173.5C 104.565,173.103 107.565,171.103 109.5,167.5C 117.799,160.868 125.466,153.535 132.5,145.5C 132.833,145.5 133.167,145.5 133.5,145.5C 133.833,146.167 134.167,146.833 134.5,147.5C 120.167,160.833 105.833,174.167 91.5,187.5C 91.1667,187.5 90.8333,187.5 90.5,187.5C 78.1396,173.14 64.8063,159.806 50.5,147.5C 49.1938,146.533 48.5271,145.199 48.5,143.5C 49.2735,139.86 49.9401,136.193 50.5,132.5 Z"/></g>
<g><path style="opacity:1" fill="#953330" d="M 69.5,161.5 C 70.5,161.5 71.5,161.5 72.5,161.5C 75.9177,165.178 79.251,169.011 82.5,173C 85.4471,173.112 86.7804,174.612 86.5,177.5C 88.1667,177.5 89.8333,177.5 91.5,177.5C 92.287,179.104 93.6203,179.771 95.5,179.5C 95.3243,175.808 96.9909,173.808 100.5,173.5C 98.7303,177.959 95.7303,181.626 91.5,184.5C 83.947,177.076 76.6137,169.41 69.5,161.5 Z"/></g>
<g><path style="opacity:1" fill="#a73024" d="M 109.5,145.5 C 109.389,146.117 109.056,146.617 108.5,147C 104.848,147.499 101.182,147.665 97.5,147.5C 97.5,148.833 97.5,150.167 97.5,151.5C 101.635,150.89 105.301,151.723 108.5,154C 105.776,154.27 103.109,154.77 100.5,155.5C 98.4775,153.827 96.1441,153.16 93.5,153.5C 93.9603,161.659 93.2936,169.659 91.5,177.5C 89.8333,177.5 88.1667,177.5 86.5,177.5C 86.7804,174.612 85.4471,173.112 82.5,173C 79.251,169.011 75.9177,165.178 72.5,161.5C 73.2471,157.807 74.5804,157.807 76.5,161.5C 77.6194,158.404 77.2861,155.404 75.5,152.5C 77.1045,150.821 77.7711,148.821 77.5,146.5C 88.1351,145.596 98.8018,145.263 109.5,145.5 Z"/></g>
</svg>
